# xmcd CD database file
#
# Track frame offsets:
#	150
#	10294
#	20697
#	27114
#	40523
#	50749
#	59843
#	68798
#	79693
#	88462
#	98808
#	111400
#	124528
#	135628
#	146229
#	155727
#	168312
#	181361
#
# Disc length: 2582 seconds
#
# Revision: 0
# Processed by: cddbd v1.5.1PL2 Copyright (c) Steve Scherf et al.
# Submitted via: Feurio! 1.68 - http://www.feurio.com
#
DISCID=020a1412
DTITLE=Pension Schmidt - Die Kiez-Soap-Opera
DYEAR=1900
DGENRE=
TTITLE0=Der Pension Schmidt Song
TTITLE1=Wenn ein Herz vom Himmel fällt
TTITLE2=Das Labskaus-Lied
TTITLE3=Nadine
TTITLE4=Superstar in USA
TTITLE5=Schrubbedidab
TTITLE6=Wunder werden wahr
TTITLE7=Aus den AUgen
TTITLE8=Der Utsche Song
TTITLE9=Deine große Stucnde
TTITLE10=Stark wie ein Baum
TTITLE11=Der Glanz deiner Gnade
TTITLE12=Allein
TTITLE13=Ich and die Musik
TTITLE14=Rote Rose
TTITLE15=Wir müssen stark sein
TTITLE16=Freie Liebe im Schlafsack
TTITLE17=Dein Happy End
EXTD=Schmidts Tivoli Theater Hamburg
EXTT0=
EXTT1=
EXTT2=
EXTT3=
EXTT4=
EXTT5=
EXTT6=
EXTT7=
EXTT8=
EXTT9=
EXTT10=
EXTT11=
EXTT12=
EXTT13=
EXTT14=
EXTT15=
EXTT16=
EXTT17=
PLAYORDER=
